PathFileType	4	(X/Y/Z)	C:\Users\Willi\SynologyDrive\Deimel_MSc_Deadlift\Athlete_03\Athlete_3_22_07_06\dl_90\marker_experimental.trc
DataRate	CameraRate	NumFrames	NumMarkers	Units	OrigDataRate	OrigDataStartFrame	OrigNumFrames
200.000000	200.000000	4	59	mm	200.000000	3368	5390
Frame#	Time	BR			GLAB			RFHD			LFHD			C7			T6			SPINMOL			SPINM2			SPINM3			T12			BELTOL			BELT2			BELT3			SACROL			SACR2			SACR3			LTHOL			LTH2			LTH3			LSHAOL			LSHA2			LSHA3			LHEE			LTOE			LM5			RTHOL			RTH2			RTH3			RSHAOL			RSHA2			RSHA3			RHEE			RTOE			RM5			STRN			XIPH			LACR			LUAOL			LUA2			LUA3			LLAOL			LLA2			LLA3			LWRU			RACR			RUAOL			RUA2			RUA3			RLAOL			RLA2			RLA3			RWRU			BL			USERMO0			USERMO1			USERMO2			USERMO3			USERMO4			USERMO5			
		X1	Y1	Z1	X2	Y2	Z2	X3	Y3	Z3	X4	Y4	Z4	X5	Y5	Z5	X6	Y6	Z6	X7	Y7	Z7	X8	Y8	Z8	X9	Y9	Z9	X10	Y10	Z10	X11	Y11	Z11	X12	Y12	Z12	X13	Y13	Z13	X14	Y14	Z14	X15	Y15	Z15	X16	Y16	Z16	X17	Y17	Z17	X18	Y18	Z18	X19	Y19	Z19	X20	Y20	Z20	X21	Y21	Z21	X22	Y22	Z22	X23	Y23	Z23	X24	Y24	Z24	X25	Y25	Z25	X26	Y26	Z26	X27	Y27	Z27	X28	Y28	Z28	X29	Y29	Z29	X30	Y30	Z30	X31	Y31	Z31	X32	Y32	Z32	X33	Y33	Z33	X34	Y34	Z34	X35	Y35	Z35	X36	Y36	Z36	X37	Y37	Z37	X38	Y38	Z38	X39	Y39	Z39	X40	Y40	Z40	X41	Y41	Z41	X42	Y42	Z42	X43	Y43	Z43	X44	Y44	Z44	X45	Y45	Z45	X46	Y46	Z46	X47	Y47	Z47	X48	Y48	Z48	X49	Y49	Z49	X50	Y50	Z50	X51	Y51	Z51	X52	Y52	Z52	X53	Y53	Z53	X54	Y54	Z54	X55	Y55	Z55	X56	Y56	Z56	X57	Y57	Z57	X58	Y58	Z58	X59	Y59	Z59	

3369	16.84	276.7146606445312	253.7313842773438	-107.7079620361328	571.7686157226562	1058.896728515625	-1226.301391601562	529.4812622070312	1102.956665039062	-1146.910766601562	524.3360595703125	1104.6103515625	-1305.983154296875	342.2269592285156	1090.744873046875	-1218.055419921875	152.8975067138672	1058.932983398438	-1213.84814453125	124.9764022827148	1054.031982421875	-1213.952880859375	73.52230834960938	1033.102172851562	-1156.20361328125	68.37387847900391	1030.315795898438	-1205.5703125	32.29299545288086	1009.159606933594	-1207.838256835938	-28.5941333770752	1007.400512695313	-1208.832763671875	-73.35305023193359	969.6881103515626	-1154.421630859375	-79.60163879394531	972.0042724609376	-1204.11865234375	-130.1519470214844	911.1101074218751	-1222.193603515625	-117.0133743286133	915.2512817382814	-1172.608764648438	-167.4199066162109	873.6984863281251	-1181.77978515625	32.73031997680664	682.4515991210939	-1435.335571289062	37.62667465209961	602.6757812500001	-1430.571044921875	74.59781646728516	636.7388305664064	-1436.177490234375	158.3405151367188	347.2677001953126	-1462.184936523438	112.8712158203125	283.0742492675782	-1458.509033203125	162.2135314941406	285.6302490234376	-1456.012451171875	45.01924133300781	69.93620300292977	-1382.059936523438	255.0103607177734	72.7421188354493	-1391.424194335938	208.7024536132812	54.00638961792001	-1497.968017578125	69.22640991210938	651.4085693359376	-994.6503295898438	148.0120391845703	638.1325683593751	-997.9909057617188	110.6948318481445	605.0631713867189	-994.80712890625	161.8883819580078	341.4739074707032	-977.800537109375	194.0735473632812	269.9978027343751	-985.7310791015625	145.6089630126953	282.7687072753907	-982.9271850585938	52.82256698608398	66.48884582519538	-1061.78955078125	262.4063415527344	65.59424591064459	-1038.002563476562	211.4970092773438	69.34091949462896	-941.5271606445312	363.8611450195312	920.5426025390626	-1227.477172851562	266.3460998535156	793.6901245117189	-1224.51318359375	331.6014099121094	954.0515747070314	-1425.40283203125	281.3098449707031	816.1475830078126	-1488.35888671875	242.7771301269531	765.7517089843751	-1507.100219726562	286.7235412597656	750.8034667968751	-1484.591918945312	280.822265625	533.0086059570314	-1485.15625	263.4373779296875	470.7840576171876	-1495.822875976562	291.2748718261719	477.1480407714845	-1455.20361328125	272.8407897949219	379.1581115722657	-1473.583129882812	358.5510559082031	944.4763793945314	-1032.202758789062	325.3455810546875	773.4840698242189	-993.7140502929688	328.540771484375	714.4243164062501	-1022.226379394531	313.1741943359375	711.2811279296876	-974.4912109375	306.0065307617188	515.1497802734376	-979.9474487304688	313.6212463378906	460.1595764160157	-1013.165100097656	294.4902954101562	453.3591308593751	-966.4819946289062	285.6027221679688	378.3564453125001	-968.75439453125	188.4051666259766	266.0708007812502	-2328.481689453125	0.2246119976043701	0.02817689999938014	-0.4894909858703613	0.04490359872579575	0.3170830011367798	-0.1789750009775161	0.1114969998598099	0.146464005112648	-0.2413219958543777	0.08241560310125351	2.028150081634521	-2.069259881973267	1.97379994392395	3.014739990234375	-1.940709948539734	2.770879983901978	0	0	
3370	16.845	276.7167358398438	253.7687225341797	-107.7074432373047	571.5146484375	1059.061767578125	-1226.143676757812	529.2277221679688	1103.10693359375	-1146.743896484375	524.134033203125	1104.858520507812	-1305.8271484375	342.035400390625	1091.034057617188	-1217.972900390625	152.6711120605469	1059.415283203125	-1213.828002929688	124.7422866821289	1054.54248046875	-1213.940185546875	73.24981689453125	1033.636596679688	-1156.215942382812	68.11524200439453	1030.871215820312	-1205.584594726562	31.97616195678711	1009.709411621094	-1207.85693359375	-29.00578308105469	1007.944641113281	-1208.871459960938	-73.76915740966797	970.2196044921876	-1154.473388671875	-80.00531768798828	972.5335083007814	-1204.172729492188	-130.5362396240234	911.6309204101564	-1222.265869140625	-117.3916473388672	915.7649536132814	-1172.690673828125	-167.8006591796875	874.2075195312501	-1181.863159179688	32.27935409545898	682.7756347656251	-1435.447387695312	37.10712814331055	602.9960327148439	-1430.64501953125	74.10592651367188	637.0241699218751	-1436.29052734375	157.9939727783203	347.2815856933595	-1462.255004882812	112.6149520874023	283.0249938964845	-1458.573120117188	161.9514465332031	285.6529846191407	-1456.047607421875	45.02703094482422	69.89484405517587	-1382.06982421875	255.0014190673828	72.75814819335946	-1391.439331054688	208.6973419189453	53.99550628662119	-1497.978637695312	68.69438171386719	651.7362670898439	-994.6004028320312	147.4698181152344	638.3811645507814	-997.8707275390625	110.1124954223633	605.3489379882814	-994.7252807617188	161.5527801513672	341.5126953125001	-977.688720703125	193.8656768798828	270.0938415527344	-985.6915283203125	145.3799438476562	282.7832031250001	-982.8228149414062	52.82276153564453	66.47518157958991	-1061.781005859375	262.4062194824219	65.60205841064459	-1037.990478515625	211.4907836914062	69.32583618164068	-941.505859375	363.5294799804688	920.8137207031251	-1227.403564453125	265.8870544433594	794.0520629882814	-1224.468994140625	331.3976440429688	954.3461914062501	-1425.322631835938	281.1213684082031	816.4624633789064	-1488.28857421875	242.5948791503906	766.0667114257814	-1507.045288085938	286.5271606445312	751.1170654296876	-1484.515502929688	280.672119140625	533.3453369140626	-1485.002197265625	263.3063049316406	471.1311340332032	-1495.742797851562	291.0357971191406	477.4664306640626	-1455.035522460938	272.6275024414062	379.4833068847657	-1473.512573242188	358.2081909179688	944.7145996093751	-1032.144165039062	324.9703674316406	773.7404174804689	-993.6982421875	328.1656494140625	714.6860961914064	-1022.220581054688	312.7748107910156	711.5312500000001	-974.4920043945312	305.7922668457031	515.4329833984376	-980.1721801757812	313.269775390625	460.4479370117188	-1013.424072265625	294.3446655273438	453.6465148925782	-966.6477661132812	285.3683166503906	378.6318359375001	-968.7623291015625	188.2466430664062	266.2379150390627	-2328.473876953125	0.2190150022506714	0.02795829996466639	-0.4778319895267487	0.04399599879980087	0.3199529945850372	-0.1785559952259063	0.1128939986228943	0.1490650027990341	-0.2441219985485077	0.08230920135974884	2.044929981231689	-2.070389986038208	1.984560012817383	3.015599966049194	-1.940659999847412	2.765429973602295	0	0	
3371	16.85	276.7213745117188	253.8029174804688	-107.7048034667969	571.2723388671875	1059.216796875	-1225.985107421875	528.983154296875	1103.25146484375	-1146.579956054688	523.9478149414062	1105.093383789062	-1305.674194335938	341.8561706542969	1091.321044921875	-1217.897216796875	152.4579620361328	1059.908203125	-1213.821166992188	124.5203475952148	1055.064819335938	-1213.9423828125	72.98649597167969	1034.185546875	-1156.244995117188	67.86701202392578	1031.440795898438	-1205.616943359375	31.66921424865723	1010.278076171875	-1207.894287109375	-29.40829277038574	1008.510925292969	-1208.931518554688	-74.18109893798828	970.7774658203126	-1154.54736328125	-80.40245056152344	973.0889282226564	-1204.249389648438	-130.9184875488281	912.1817626953126	-1222.362060546875	-117.7693862915039	916.3087768554689	-1172.795776367188	-168.1803588867188	874.7473144531251	-1181.972778320312	31.82578086853027	683.1141967773439	-1435.570434570312	36.57785415649414	603.3303833007814	-1430.729248046875	73.6075439453125	637.3202514648439	-1436.412231445312	157.6411285400391	347.2904052734376	-1462.327026367188	112.3537139892578	282.9692382812501	-1458.642578125	161.6841278076172	285.670623779297	-1456.083251953125	45.04050445556641	69.84819030761727	-1382.082885742188	254.9932098388672	72.77416992187509	-1391.453979492188	208.6921844482422	53.98433685302744	-1497.989135742188	68.13018035888672	652.0820922851564	-994.5464477539062	146.8949432373047	638.6433105468751	-997.73486328125	109.4951248168945	605.6499023437501	-994.6343383789062	161.1945495605469	341.5392456054688	-977.5665893554688	193.6364440917969	270.1784667968751	-985.6454467773438	145.1298522949219	282.7857360839844	-982.7111206054688	52.82242202758789	66.46249389648445	-1061.771362304688	262.4054260253906	65.60977935791021	-1037.975830078125	211.4835510253906	69.30880737304693	-941.4818725585938	363.2015991210938	921.0809326171876	-1227.335205078125	265.4231872558594	794.4168701171876	-1224.436645507812	331.2074584960938	954.6366577148439	-1425.248168945312	280.9428405761719	816.7763061523439	-1488.22265625	242.4197692871094	766.3823852539064	-1506.99462890625	286.3363952636719	751.4297485351564	-1484.442016601562	280.5224914550781	533.6862182617189	-1484.849975585938	263.171142578125	471.483123779297	-1495.664916992188	290.7938537597656	477.7889099121095	-1454.870239257812	272.4102172851562	379.8134155273439	-1473.4453125	357.8674621582031	944.9520263671876	-1032.093872070312	324.6003723144531	773.9979248046876	-993.6904907226562	327.7965087890625	714.9495849609376	-1022.223815917969	312.3825378417969	711.7824096679689	-974.5009155273438	305.5963134765625	515.7163085937501	-980.428955078125	312.9126586914062	460.7339782714844	-1013.715881347656	294.2203369140625	453.9365234375001	-966.8353881835938	285.1358032226562	378.9093322753907	-968.7697143554688	188.0906524658203	266.4018859863283	-2328.464111328125	0.2134030014276505	0.02780600078403953	-0.4666979908943176	0.04282740131020546	0.3214569985866547	-0.1785340011119842	0.1146010011434555	0.1507660001516342	-0.2459039986133575	0.08175289630889893	2.060290098190308	-2.071379899978638	1.994570016860962	3.016599893569946	-1.941059947013855	2.759360074996948	0	0	
3372	16.855	276.7276000976562	253.8354644775391	-107.700065612793	571.0422973632812	1059.361206054688	-1225.825805664062	528.7484741210938	1103.390747070312	-1146.419067382812	523.7774047851562	1105.312255859375	-1305.5244140625	341.6894836425781	1091.604858398438	-1217.827758789062	152.2580718994141	1060.410034179688	-1213.827026367188	124.3105621337891	1055.597290039062	-1213.95849609375	72.73256683349609	1034.747314453125	-1156.2900390625	67.62950134277344	1032.022705078125	-1205.666137695312	31.37249755859375	1010.86328125	-1207.949340820312	-29.80142974853516	1009.096984863281	-1209.011108398438	-74.58824157714844	971.3585815429689	-1154.641967773438	-80.79257202148438	973.6677246093751	-1204.347290039062	-131.2978210449219	912.7597045898439	-1222.480102539062	-118.1460418701172	916.8796997070314	-1172.922485351562	-168.5578002929688	875.3141479492189	-1182.107421875	31.37211990356445	683.4674682617189	-1435.704711914062	36.04120254516602	603.6788940429689	-1430.82421875	73.10503387451172	637.6270751953126	-1436.542358398438	157.2830810546875	347.2950744628907	-1462.401000976562	112.0881805419922	282.9081115722657	-1458.717895507812	161.4125518798828	285.6839904785157	-1456.11962890625	45.05961227416992	69.79661560058602	-1382.099365234375	254.9858703613281	72.78986358642587	-1391.4677734375	208.6870269775391	53.97293472290048	-1497.99951171875	67.53785705566406	652.4442138671876	-994.49072265625	146.2913513183594	638.9172363281251	-997.58642578125	108.8469543457031	605.9642944335939	-994.5372924804688	160.8127288818359	341.5524902343751	-977.4364624023438	193.3833465576172	270.2498474121094	-985.5928344726562	144.8564453125	282.7751770019532	-982.5944213867188	52.82131195068359	66.45004272460945	-1061.760986328125	262.4043273925781	65.61814117431646	-1037.959350585938	211.4752502441406	69.29023742675787	-941.45556640625	362.8780517578125	921.3434448242189	-1227.271240234375	264.9555053710938	794.7833251953126	-1224.411865234375	331.0308227539062	954.9214477539064	-1425.178955078125	280.7714233398438	817.0884399414064	-1488.161743164062	242.2481079101562	766.6987304687501	-1506.948486328125	286.1479187011719	751.7409667968751	-1484.37255859375	280.369873046875	534.0300292968751	-1484.703247070312	263.0289306640625	471.8388061523439	-1495.591064453125	290.5481567382812	478.1150817871095	-1454.7119140625	272.187744140625	380.1477050781251	-1473.382568359375	357.5289001464844	945.1882934570314	-1032.050659179688	324.2363891601562	774.2559204101564	-993.6909790039062	327.4337463378906	715.2141113281251	-1022.236450195312	311.9987487792969	712.0339965820314	-974.5184326171875	305.4188232421875	515.9992675781251	-980.7158813476562	312.5517883300781	461.0174865722657	-1014.038635253906	294.1173095703125	454.2282104492188	-967.0449829101562	284.9056701660156	379.1886291503907	-968.7772216796875	187.9362945556641	266.5642089843752	-2328.4521484375	0.2078659981489182	0.02773199975490573	-0.4566409885883331	0.04143049940466881	0.3217459917068481	-0.1791200041770935	0.1166009977459908	0.1514720022678376	-0.24686099588871	0.08068989962339401	2.073930025100708	-2.072089910507202	2.003599882125854	3.017729997634888	-1.941740036010742	2.752739906311035	0	0	
